<?xml version="1.0" encoding="utf-8"?>
<!-- Generator: Adobe Illustrator 21.1.0, SVG Export Plug-In . SVG Version: 6.00 Build 0)  -->
<svg version="1.1" id="Capa_1" xmlns="http://www.w3.org/2000/svg" xmlns:xlink="http://www.w3.org/1999/xlink" x="0px" y="0px"
	 viewBox="0 0 512 256" style="enable-background:new 0 0 512 256;" xml:space="preserve">
<style type="text/css">
	.st0{fill:#303C42;}
	.st1{fill:#82B1FF;}
</style>
<path class="st0" d="M256,0C112.4,0,0,56.2,0,128s112.4,128,256,128s256-56.2,256-128S399.6,0,256,0z"/>
<path class="st1" d="M256,234.7c-61.3,0-117.9-11.4-160.3-29.7l8.6-34.3h37.4c28.2,0,52.7-19.1,59.5-46.5l1.9-7.5
	c3.2-12.8,0.4-26-7.7-36.4C187.4,69.9,175.2,64,162.1,64h-44.7c-4.9,0-9.2,3.3-10.3,8.1L76.1,195.6c-34-18.6-54.8-42.2-54.8-67.6
	C21.3,70.2,128.8,21.3,256,21.3S490.7,70.2,490.7,128S383.2,234.7,256,234.7z"/>
<path id="SVGCleanerId_0" class="st1" d="M109.7,149.3l16-64h36.4c6.5,0,12.6,2.9,16.6,8.1c4,5.1,5.4,11.7,3.8,18.1l-1.9,7.5
	c-4.5,17.9-20.4,30.3-38.8,30.3H109.7z"/>
<g>
	<path id="SVGCleanerId_0_1_" class="st1" d="M109.7,149.3l16-64h36.4c6.5,0,12.6,2.9,16.6,8.1c4,5.1,5.4,11.7,3.8,18.1l-1.9,7.5
		c-4.5,17.9-20.4,30.3-38.8,30.3H109.7z"/>
</g>
<g>
	<path class="st0" d="M407.4,64h-44.7c-4.9,0-9.2,3.3-10.3,8.1L331,157.2c0,0.2-0.1,0.3-0.1,0.4l-10.6,42.5
		c-1.4,5.7,2,11.5,7.8,12.9c0.9,0.2,1.7,0.3,2.6,0.3c4.8,0,9.1-3.2,10.3-8.1l8.7-34.6h37.4c28.2,0,52.7-19.1,59.5-46.5l1.9-7.5
		c3.2-12.8,0.4-26-7.7-36.4C432.7,69.9,420.5,64,407.4,64z M427.8,111.5l-1.9,7.5c-4.5,17.9-20.4,30.3-38.8,30.3H355l16-64h36.4
		c6.5,0,12.6,2.9,16.6,8.1C428,98.6,429.4,105.2,427.8,111.5z"/>
	<path class="st0" d="M313.5,77c-6.7-8.3-16.7-13-27.4-13h-33.8l3.5-19.4c1.1-5.8-2.8-11.3-8.6-12.4c-5.8-1.1-11.4,2.8-12.4,8.6
		l-21.3,117.3c-1.1,5.8,2.8,11.3,8.6,12.4c0.6,0.1,1.3,0.2,1.9,0.2c5.1,0,9.6-3.6,10.5-8.8l13.9-76.6h37.7c4.2,0,8.2,1.9,10.8,5.2
		s3.7,7.5,2.8,11.7l-11.6,55.7c-1.2,5.8,2.5,11.4,8.3,12.6c0.7,0.1,1.5,0.2,2.2,0.2c4.9,0,9.4-3.5,10.4-8.5l11.6-55.7
		C322.9,96.1,320.2,85.3,313.5,77z"/>
</g>
</svg>
