<svg style="position: absolute; width: 0; height: 0; overflow: hidden;" version="1.1" xmlns="http://www.w3.org/2000/svg" xmlns:xlink="http://www.w3.org/1999/xlink">
<defs>
<symbol id="icon-facebook" viewBox="0 0 32 32">
<title>facebook</title>
<path fill="#000" style="fill: var(--color1, #000)" d="M27 32h-22c-2.8 0-5-2.2-5-5v-22c0-2.8 2.2-5 5-5h22c2.8 0 5 2.2 5 5v22c0 2.8-2.2 5-5 5z"></path>
<path fill="#fff" style="fill: var(--color2, #fff)" d="M17.8 25.8v-8.8h2.7l0.4-3.9h-3.2v-1.9c0-1 0-2 1.5-2h1.5v-2.8c0 0-1.3-0.1-2.5-0.1-2.7 0-4.3 1.6-4.3 4.6v2.3h-2.9v3.8h2.9v8.8h3.9z"></path>
</symbol>
<symbol id="icon-github" viewBox="0 0 32 32">
<title>github</title>
<path fill="#000" style="fill: var(--color1, #000)" d="M27 32h-22c-2.8 0-5-2.2-5-5v-22c0-2.8 2.2-5 5-5h22c2.8 0 5 2.2 5 5v22c0 2.8-2.2 5-5 5z"></path>
<path fill="#fff" style="fill: var(--color2, #fff)" d="M16 6.2c5.4 0 9.8 4.5 9.8 10.1 0 4.5-2.8 8.2-6.7 9.6-0.5 0.1-0.7-0.2-0.7-0.5s0-1.4 0-2.8c0-0.9-0.3-1.6-0.7-1.9 2.2-0.2 4.5-1.1 4.5-5 0-1.1-0.4-2-1-2.7 0.1-0.3 0.4-1.3-0.1-2.7 0 0-0.8-0.3-2.7 1-0.7-0.1-1.6-0.3-2.4-0.3s-1.7 0.1-2.5 0.3c-1.9-1.3-2.7-1-2.7-1-0.5 1.4-0.2 2.4-0.1 2.7-0.6 0.7-1 1.6-1 2.7 0 3.9 2.3 4.7 4.5 5-0.3 0.3-0.5 0.7-0.6 1.3-0.6 0.3-2 0.7-2.9-0.8 0 0-0.5-1-1.5-1 0 0-1 0-0.1 0.6 0 0 0.6 0.3 1.1 1.5 0 0 0.6 1.8 3.3 1.2 0 0.8 0 1.6 0 1.9s-0.2 0.6-0.7 0.5c-3.9-1.3-6.7-5.1-6.7-9.6 0.1-5.6 4.5-10.1 9.9-10.1z"></path>
</symbol>
<symbol id="icon-linkedin" viewBox="0 0 32 32">
<title>linkedin</title>
<path fill="#000" style="fill: var(--color1, #000)" d="M27 32h-22c-2.8 0-5-2.2-5-5v-22c0-2.8 2.2-5 5-5h22c2.8 0 5 2.2 5 5v22c0 2.8-2.2 5-5 5z"></path>
<path fill="#fff" style="fill: var(--color2, #fff)" d="M11.8 24.3h-4.1v-10.8h4.2v10.8zM9.7 11.8c-1.1 0-2-0.9-2-2s0.9-2 2-2 2 0.9 2 2c0 1.1-0.9 2-2 2zM24.3 24.3h-3.3c0 0 0-4.2 0-5.8s-0.7-2.5-2-2.5c-1.4 0-2.2 0.9-2.2 2.5 0 1.7 0 5.8 0 5.8h-3.3v-10.8h3.3v1.2c0 0 1-1.8 3.4-1.8s4.1 1.4 4.1 4.4c0 3 0 7 0 7z"></path>
</symbol>
<symbol id="icon-mail" viewBox="0 0 32 32">
<title>mail</title>
<path fill="#000" style="fill: var(--color1, #000)" d="M27 32h-22c-2.8 0-5-2.2-5-5v-22c0-2.8 2.2-5 5-5h22c2.8 0 5 2.2 5 5v22c0 2.8-2.2 5-5 5z"></path>
<path fill="#fff" style="fill: var(--color2, #fff)" d="M16 18.1l-9-8v-0.9c3.7 0 14.4 0 18.1 0v0.9l-9.1 8zM16 20.5l-9-8c0 3.8 0 6.2 0 10.2 3.6 0 14.4 0 18.1 0 0-4 0-6.5 0-10.2l-9.1 8z"></path>
</symbol>
<symbol id="icon-circle-up" viewBox="0 0 32 32">
<title>circle-up</title>
<path d="M0 16c0 8.837 7.163 16 16 16s16-7.163 16-16-7.163-16-16-16-16 7.163-16 16zM29 16c0 7.18-5.82 13-13 13s-13-5.82-13-13 5.82-13 13-13 13 5.82 13 13z"></path>
<path d="M22.086 20.914l2.829-2.829-8.914-8.914-8.914 8.914 2.828 2.828 6.086-6.086z"></path>
</symbol>
</defs>
</svg>
